<svg viewBox="0 0 512 512" height="512" width="512" xmlns="http://www.w3.org/2000/svg">
  
  <rect fill="#000000" height="512" width="512"></rect>

  
  <circle stroke-width="28" stroke="#2a2a2a" fill="#0f0f0f" r="215" cy="256" cx="256"></circle>

  
  <g stroke-linecap="round" stroke-width="16" stroke="#e9e9e9">
    <line transform="rotate(0 256 256)" y2="108" x2="256" y1="68" x1="256"></line>
    <line transform="rotate(30 256 256)" y2="108" x2="256" y1="68" x1="256"></line>
    <line transform="rotate(60 256 256)" y2="108" x2="256" y1="68" x1="256"></line>
    <line transform="rotate(90 256 256)" y2="108" x2="256" y1="68" x1="256"></line>
    <line transform="rotate(120 256 256)" y2="108" x2="256" y1="68" x1="256"></line>
    <line transform="rotate(150 256 256)" y2="108" x2="256" y1="68" x1="256"></line>
    <line transform="rotate(180 256 256)" y2="108" x2="256" y1="68" x1="256"></line>
    <line transform="rotate(210 256 256)" y2="108" x2="256" y1="68" x1="256"></line>
    <line transform="rotate(240 256 256)" y2="108" x2="256" y1="68" x1="256"></line>
    <line transform="rotate(270 256 256)" y2="108" x2="256" y1="68" x1="256"></line>
    <line transform="rotate(300 256 256)" y2="108" x2="256" y1="68" x1="256"></line>
    <line transform="rotate(330 256 256)" y2="108" x2="256" y1="68" x1="256"></line>
  </g>

  
  <circle fill="#f5b301" r="38" cy="256" cx="256"></circle>

  
  <line stroke-linecap="round" stroke-width="17" stroke="#e9e9e9" y2="132" x2="256" y1="256" x1="256"></line>

  
  <line transform="rotate(90 256 256)" stroke-linecap="round" stroke-width="13" stroke="#e9e9e9" y2="178" x2="305" y1="256" x1="256"></line>

  
  <line transform="rotate(106 256 256)" stroke-linecap="round" stroke-width="7" stroke="#ff3333" y2="370" x2="280" y1="256" x1="256"></line>

  
  <circle fill="#111111" r="14" cy="256" cx="256"></circle>
  <circle fill="#e9e9e9" r="7" cy="256" cx="256"></circle>
</svg>
